<?xml version="1.0" encoding="UTF-8"?>
<svg version="1.1" xmlns="http://www.w3.org/2000/svg" width="500" height="500">
<path d="M0 0 C165 0 330 0 500 0 C500 165 500 330 500 500 C335 500 170 500 0 500 C0 335 0 170 0 0 Z " fill="#000000" transform="translate(0,0)"/>
<path d="M0 0 C4.51983766 2.43375874 7.32205895 4.98001677 9.25 9.75 C9.70756182 14.36329971 9.62031483 18.99136338 9.625 23.625 C9.64949219 24.89214844 9.67398438 26.15929687 9.69921875 27.46484375 C9.73558614 38.993307 9.73558614 38.993307 5.25 43.75 C0.41946098 48.21824859 -3.08459904 49.12098005 -9.65625 49.03515625 C-14.16863576 48.42059625 -17.57983986 46.03717615 -20.625 42.6875 C-23.71386152 37.36779404 -23.00959365 31.43275839 -23.04516602 25.46313477 C-23.06235018 23.45500808 -23.10625424 21.44716826 -23.15039062 19.43945312 C-23.15876953 18.16392578 -23.16714844 16.88839844 -23.17578125 15.57421875 C-23.19036377 14.40979248 -23.20494629 13.24536621 -23.2199707 12.0456543 C-22.57103559 7.49501791 -20.53312475 4.33783014 -17.109375 1.2890625 C-11.14201831 -2.10016436 -6.47170675 -2.15723558 0 0 Z " fill="#F3F3F3" transform="translate(172.75,227.25)"/>
<path d="M0 0 C2.97 0 5.94 0 9 0 C9 16.17 9 32.34 9 49 C6.36 49 3.72 49 1 49 C0.505 46.525 0.505 46.525 0 44 C-0.474375 44.804375 -0.94875 45.60875 -1.4375 46.4375 C-4.58890547 49.58890547 -6.48372076 49.88450566 -10.81640625 50.140625 C-14.74166439 49.88783557 -16.87904384 47.96081957 -19.75 45.5 C-23.20178143 41.35786229 -22.30272003 35.27009636 -22.375 30.1875 C-22.41238281 29.20201172 -22.44976562 28.21652344 -22.48828125 27.20117188 C-22.58698258 19.03637891 -22.58698258 19.03637891 -19.6015625 15.36328125 C-16.19845138 12.27186649 -14.6153691 11.82994722 -10.125 11.75 C-8.82949219 11.71132812 -8.82949219 11.71132812 -7.5078125 11.671875 C-5 12 -5 12 -1 15 C-0.67 10.05 -0.34 5.1 0 0 Z " fill="#F3F3F3" transform="translate(332,226)"/>
<path d="M0 0 C2.05078125 0.03255208 4.1015625 0.06510417 6.15234375 0.09765625 C5.46298304 4.00887123 4.36984194 7.65274221 3.08984375 11.41015625 C2.72761719 12.47878906 2.36539062 13.54742187 1.9921875 14.6484375 C1.71503906 15.45667969 1.43789063 16.26492187 1.15234375 17.09765625 C1.92964844 17.33355469 2.70695312 17.56945312 3.5078125 17.8125 C8.28688433 19.49772468 12.85257586 21.5672777 17.46484375 23.66015625 C18.38330078 24.07201172 19.30175781 24.48386719 20.24804688 24.90820312 C27.02187921 27.96719171 27.02187921 27.96719171 28.15234375 29.09765625 C28.29349536 31.76824476 28.19481482 34.42197863 28.15234375 37.09765625 C2.44266633 50.09765625 2.44266633 50.09765625 -1.84765625 50.09765625 C-1.84765625 47.78765625 -1.84765625 45.47765625 -1.84765625 43.09765625 C5.65450872 39.16982119 13.11847683 35.78615502 21.15234375 33.09765625 C20.17007813 32.75154297 20.17007813 32.75154297 19.16796875 32.3984375 C17.79898438 31.90923828 17.79898438 31.90923828 16.40234375 31.41015625 C15.520625 31.09691406 14.63890625 30.78367188 13.73046875 30.4609375 C8.48881965 28.4638463 3.33007784 26.25504546 -1.84765625 24.09765625 C-6.46765625 36.63765625 -11.08765625 49.17765625 -15.84765625 62.09765625 C-18.81765625 62.09765625 -21.78765625 62.09765625 -24.84765625 62.09765625 C-22.68493502 54.59973382 -20.16806304 47.30705218 -17.43359375 40 C-17.01848541 38.88452286 -16.60337708 37.76904572 -16.1756897 36.61976624 C-15.30487549 34.28214661 -14.43248754 31.94511268 -13.55859375 29.60864258 C-12.21554971 26.01614703 -10.87893936 22.42130305 -9.54296875 18.82617188 C-8.69439056 16.55063945 -7.84544551 14.2752438 -6.99609375 12 C-6.59506439 10.92096909 -6.19403503 9.84193817 -5.78085327 8.73020935 C-5.41021759 7.74150345 -5.03958191 6.75279755 -4.65771484 5.73413086 C-4.16831924 4.42369057 -4.16831924 4.42369057 -3.66903687 3.08677673 C-2.44781845 0.1293773 -2.44781845 0.1293773 0 0 Z " fill="#F62F2F" transform="translate(374.84765625,219.90234375)"/>
<path d="M0 0 C2.31 0 4.62 0 7 0 C7.33 0.66 7.66 1.32 8 2 C8.66 1.34 9.32 0.68 10 0 C14.05261287 -0.34490322 15.54754176 -0.30163882 19 2 C19 2.66 19 3.32 19 4 C19.66 4 20.32 4 21 4 C21.66 2.68 22.32 1.36 23 0 C29.47630923 -0.36658354 29.47630923 -0.36658354 31.875 1.3125 C34.39926412 5.09889617 34.11565514 8.66449089 34.09765625 13.07421875 C34.0962413 13.7580513 34.09482635 14.44188385 34.09336853 15.1464386 C34.08777876 17.32683722 34.07522822 19.50713251 34.0625 21.6875 C34.05748367 23.16731622 34.052921 24.64713406 34.04882812 26.12695312 C34.03781271 29.75133557 34.02055512 33.3756577 34 37 C31.36 37 28.72 37 26 37 C26 26.77 26 16.54 26 6 C24.35 6.33 22.7 6.66 21 7 C20.67 16.9 20.34 26.8 20 37 C17.69 37 15.38 37 13 37 C12.67 27.1 12.34 17.2 12 7 C10.68 7 9.36 7 8 7 C7.67 16.9 7.34 26.8 7 37 C4.69 37 2.38 37 0 37 C0 24.79 0 12.58 0 0 Z " fill="#F1F1F1" transform="translate(269,238)"/>
<path d="M0 0 C3.19343565 -0.65172156 5.83270832 -0.85196137 9 0 C11.91288808 3.00787356 13.97298644 6.35007204 16 10 C18.52177729 7.61313261 20.04978473 5.90043053 21.625 2.75 C24 0 24 0 26.4765625 -0.3828125 C29.01017726 -0.37567556 31.48048299 -0.25964488 34 0 C32.91751309 1.70886979 31.83396706 3.41706871 30.75 5.125 C30.11707031 6.13046875 29.48414063 7.1359375 28.83203125 8.171875 C27.43641916 10.32629537 25.99453054 12.34176424 24.4375 14.375 C22.68050559 16.85989907 22.68050559 16.85989907 23.62109375 19.24609375 C25.3141051 22.62732039 27.4125264 25.63497783 29.625 28.6875 C34 34.73332055 34 34.73332055 34 37 C30.77280243 37.73956611 28.20224326 37.92268026 25 37 C21.76880491 33.6733016 19.3680477 29.97470676 17 26 C14.736472 28.73393197 12.94636354 31.10933586 11.375 34.3125 C9 37 9 37 6.5234375 37.37890625 C3.98913402 37.37533681 1.52014266 37.25970936 -1 37 C2.84282322 30.87584657 6.72368078 24.83134439 11 19 C8.81209979 14.24618542 5.72143861 10.0843469 2.77734375 5.77734375 C1 3 1 3 0 0 Z " fill="#F4F4F4" transform="translate(189,238)"/>
<path d="M0 0 C2.64 0 5.28 0 8 0 C8.33 1.32 8.66 2.64 9 4 C9.45375 3.34 9.9075 2.68 10.375 2 C14.35312988 -1.0309561 18.16443449 -0.65154535 23 0 C26.68137204 1.56654129 29.19896612 3.39793224 31 7 C31.240143 10.01744898 31.17421398 12.98029102 31 16 C28.36 16 25.72 16 23 16 C22.525625 14.865625 22.05125 13.73125 21.5625 12.5625 C20.36377917 9.24259834 20.36377917 9.24259834 19 8 C15.58399407 7.58307147 15.58399407 7.58307147 12 8 C8.87692863 11.04703059 8.59686186 13.60301527 8.48828125 17.859375 C8.45283203 18.97441406 8.41738281 20.08945312 8.38085938 21.23828125 C8.34702148 22.97658203 8.34702148 22.97658203 8.3125 24.75 C8.27833984 25.92433594 8.24417969 27.09867187 8.20898438 28.30859375 C8.12654827 31.20563389 8.05738189 34.10237298 8 37 C5.36 37 2.72 37 0 37 C0 24.79 0 12.58 0 0 Z " fill="#F9F9F9" transform="translate(232,238)"/>
<path d="M0 0 C1.71899414 1.1328125 1.71899414 1.1328125 3 3 C3.65434954 7.63698575 3.46307487 12.32212384 3.4375 17 C3.45748047 18.29679687 3.47746094 19.59359375 3.49804688 20.9296875 C3.49740234 22.16976563 3.49675781 23.40984375 3.49609375 24.6875 C3.49794678 25.82574219 3.4997998 26.96398437 3.50170898 28.13671875 C3 31 3 31 1.19165039 32.875 C-1.97904498 34.50255534 -4.49351879 34.31877102 -8 34 C-11 32 -11 32 -12 29 C-12.28498771 24.85883373 -12.27758799 20.71237397 -12.3125 16.5625 C-12.34150391 15.41716797 -12.37050781 14.27183594 -12.40039062 13.09179688 C-12.40876953 11.99029297 -12.41714844 10.88878906 -12.42578125 9.75390625 C-12.44036377 8.74658447 -12.45494629 7.7392627 -12.4699707 6.70141602 C-11.21497695 -0.51235326 -6.07633171 -0.67514797 0 0 Z " fill="#070707" transform="translate(170,234)"/>
<path d="M0 0 C0.66 0 1.32 0 2 0 C2 2.64 2 5.28 2 8 C-1.26976016 9.4815473 -4.54098785 10.95982591 -7.8125 12.4375 C-8.74126953 12.85837891 -9.67003906 13.27925781 -10.62695312 13.71289062 C-11.51962891 14.11572266 -12.41230469 14.51855469 -13.33203125 14.93359375 C-14.15421143 15.30540771 -14.9763916 15.67722168 -15.82348633 16.06030273 C-18 17 -18 17 -21 18 C-19.84242187 18.47050781 -18.68484375 18.94101563 -17.4921875 19.42578125 C-15.95307496 20.05456503 -14.41401525 20.68347814 -12.875 21.3125 C-12.11445312 21.62123047 -11.35390625 21.92996094 -10.5703125 22.24804688 C-6.2845912 24.00297586 -2.1144763 25.8638901 2 28 C2 30.64 2 33.28 2 36 C-2.08364114 34.7023449 -5.94764816 33.1962487 -9.8359375 31.3984375 C-10.89941406 30.90859375 -11.96289062 30.41875 -13.05859375 29.9140625 C-14.15300781 29.40617187 -15.24742188 28.89828125 -16.375 28.375 C-17.49261719 27.859375 -18.61023438 27.34375 -19.76171875 26.8125 C-22.50912202 25.54446772 -25.2551527 24.2735532 -28 23 C-28 19.7 -28 16.4 -28 13 C-27.18732666 12.64172119 -26.37465332 12.28344238 -25.53735352 11.91430664 C-22.53050638 10.58738269 -19.52459013 9.25839384 -16.51928711 7.92797852 C-15.21692184 7.35194796 -13.91418815 6.77674964 -12.61108398 6.20239258 C-10.74105536 5.37798665 -8.87236024 4.55062363 -7.00390625 3.72265625 C-5.87799072 3.22515869 -4.7520752 2.72766113 -3.59204102 2.21508789 C-1.1239572 1.23732909 -1.1239572 1.23732909 0 0 Z " fill="#00B55E" transform="translate(139,235)"/>
<path d="M0 0 C3.625 0.25 3.625 0.25 5.5 1.5625 C8.02426412 5.34889617 7.74065514 8.91449089 7.72265625 13.32421875 C7.7212413 14.0080513 7.71982635 14.69188385 7.71836853 15.3964386 C7.71277876 17.57683722 7.70022822 19.75713251 7.6875 21.9375 C7.68248367 23.41731622 7.677921 24.89713406 7.67382812 26.37695312 C7.66281271 30.00133557 7.64555512 33.6256577 7.625 37.25 C4.985 37.25 2.345 37.25 -0.375 37.25 C-0.375 27.02 -0.375 16.79 -0.375 6.25 C-2.025 6.25 -3.675 6.25 -5.375 6.25 C-4.31051492 0.3192974 -4.31051492 0.3192974 0 0 Z " fill="#E6E6E6" transform="translate(295.375,237.75)"/>
<path d="M0 0 C3.78385037 0.63064173 4.72017599 1.43603269 7 4.5 C7.37307106 7.34650284 7.51645498 9.73285557 7.4375 12.5625 C7.44458984 13.28244141 7.45167969 14.00238281 7.45898438 14.74414062 C7.42318376 17.71008429 7.36177429 19.94240292 5.72265625 22.46875 C3.67009391 23.6974948 2.38622814 23.93298063 0 23.9375 C-0.680625 23.95683594 -1.36125 23.97617187 -2.0625 23.99609375 C-4 23.5 -4 23.5 -5.72265625 21.94140625 C-7.49648794 18.55105516 -7.43375048 15.80951116 -7.4375 12 C-7.45683594 10.6903125 -7.47617187 9.380625 -7.49609375 8.03125 C-7 4.5 -7 4.5 -5.16015625 2.0625 C-3 0.5 -3 0.5 0 0 Z " fill="#040404" transform="translate(325,244.5)"/>
<path d="M0 0 C1.98 0 3.96 0 6 0 C7.00013174 4.14241416 7.11516542 8.01480304 7.09765625 12.26953125 C7.0962413 12.95053391 7.09482635 13.63153656 7.09336853 14.33317566 C7.08780298 16.49299647 7.07525703 18.65271089 7.0625 20.8125 C7.05748054 22.28320162 7.05291841 23.75390488 7.04882812 25.22460938 C7.03784488 28.8164404 7.02060422 32.4082098 7 36 C4.69 36 2.38 36 0 36 C0 24.12 0 12.24 0 0 Z " fill="#FEFEFE" transform="translate(269,239)"/>
<path d="M0 0 C1.66611905 -0.042721 3.33382885 -0.04063832 5 0 C6 1 6 1 6.09765625 3.50390625 C6.08605469 4.51324219 6.07445312 5.52257812 6.0625 6.5625 C6.05347656 7.57441406 6.04445312 8.58632812 6.03515625 9.62890625 C6.02355469 10.41136719 6.01195312 11.19382812 6 12 C4.34385343 12.38218767 2.67542976 12.71395102 1 13 C0 12 0 12 -0.09765625 9.27734375 C-0.08605469 8.17519531 -0.07445312 7.07304687 -0.0625 5.9375 C-0.05347656 4.83277344 -0.04445312 3.72804687 -0.03515625 2.58984375 C-0.02355469 1.73519531 -0.01195312 0.88054687 0 0 Z " fill="#F3F3F3" transform="translate(163,245)"/>
</svg>
